<?xml version="1.0" encoding="UTF-8"?>
<!DOCTYPE svg PUBLIC "-//W3C//DTD SVG 1.1//EN" "http://www.w3.org/Graphics/SVG/1.1/DTD/svg11.dtd">
<svg xmlns="http://www.w3.org/2000/svg" version="1.1" width="1560px" height="1170px" style="shape-rendering:geometricPrecision; text-rendering:geometricPrecision; image-rendering:optimizeQuality; fill-rule:evenodd; clip-rule:evenodd" xmlns:xlink="http://www.w3.org/1999/xlink">
<g><path style="opacity:1" fill="#121212" d="M -0.5,-0.5 C 174.833,-0.5 350.167,-0.5 525.5,-0.5C 525.5,21.1667 525.5,42.8333 525.5,64.5C 524.503,43.3399 524.169,22.0065 524.5,0.5C 349.43,0.168072 174.43,0.501406 -0.5,1.5C -0.5,0.833333 -0.5,0.166667 -0.5,-0.5 Z"/></g>
<g><path style="opacity:1" fill="#fefefe" d="M 527.5,-0.5 C 701.5,-0.5 875.5,-0.5 1049.5,-0.5C 1049.5,120.167 1049.5,240.833 1049.5,361.5C 1048.83,361.5 1048.5,361.833 1048.5,362.5C 1046.41,363.148 1045.41,364.648 1045.5,367C 1045.99,369.819 1047.16,372.319 1049,374.5C 1049.5,396.164 1049.67,417.831 1049.5,439.5C 1048.5,439.414 1047.67,439.748 1047,440.5C 1045.89,444.625 1046.56,448.291 1049,451.5C 1049.83,550.502 1049.67,649.502 1048.5,748.5C 1045.76,751.892 1045.93,755.225 1049,758.5C 1049.67,777.167 1049.67,795.833 1049,814.5C 1047.12,815.653 1046.28,817.319 1046.5,819.5C 1044.8,822.997 1045.97,824.997 1050,825.5C 1049.87,872.163 1049.54,918.829 1049,965.5C 1047,968.5 1047,971.5 1049,974.5C 1050.04,999.048 1049.54,1023.55 1047.5,1048C 1047.34,1050.54 1048,1052.71 1049.5,1054.5C 1050.38,1057.02 1051.22,1059.69 1052,1062.5C 1052.67,1074.5 1052.67,1086.5 1052,1098.5C 1050.73,1099.9 1050.23,1101.57 1050.5,1103.5C 1049.53,1106.3 1048.86,1109.3 1048.5,1112.5C 1049.2,1118.48 1049.7,1124.48 1050,1130.5C 1050.22,1132.38 1050.88,1134.05 1052,1135.5C 1052.5,1146.83 1052.67,1158.16 1052.5,1169.5C 876.833,1169.5 701.167,1169.5 525.5,1169.5C 525.5,1168.83 525.5,1168.17 525.5,1167.5C 527.133,1163.91 526.633,1160.58 524,1157.5C 523.506,1155.87 523.34,1154.2 523.5,1152.5C 523.392,1150.49 524.058,1148.82 525.5,1147.5C 526.302,1146.05 526.802,1144.38 527,1142.5C 527.667,978.833 527.667,815.167 527,651.5C 525.001,649.654 524.168,647.321 524.5,644.5C 524.383,641.56 525.05,638.893 526.5,636.5C 527.828,585.901 527.828,535.234 526.5,484.5C 525.583,483.873 524.583,483.539 523.5,483.5C 522.833,483.167 522.167,482.833 521.5,482.5C 521.392,480.486 522.058,478.82 523.5,477.5C 524.167,474.5 524.833,471.5 525.5,468.5C 526.268,467.737 526.768,466.737 527,465.5C 527.831,430.331 527.664,395.331 526.5,360.5C 522.729,357.78 522.563,354.78 526,351.5C 526.667,260.5 526.667,169.5 526,78.5C 524.054,77.0063 523.221,75.0063 523.5,72.5C 523.585,70.6672 524.252,69.3339 525.5,68.5C 527.49,45.8576 528.156,22.8576 527.5,-0.5 Z"/></g>
<g><path style="opacity:1" fill="#000000" d="M 525.5,64.5 C 523.82,66.5425 522.487,68.8758 521.5,71.5C 522.156,73.4534 522.489,75.4534 522.5,77.5C 522.461,78.7562 522.961,79.7562 524,80.5C 524.5,170.499 524.667,260.499 524.5,350.5C 520.503,354.237 520.669,357.904 525,361.5C 525.5,395.832 525.667,430.165 525.5,464.5C 524.069,465.78 523.402,467.447 523.5,469.5C 522.902,473.203 521.902,476.87 520.5,480.5C 520.543,481.416 520.876,482.083 521.5,482.5C 522.167,482.833 522.833,483.167 523.5,483.5C 523.833,484.167 524.167,484.833 524.5,485.5C 524.667,535.834 524.5,586.168 524,636.5C 522.891,638.8 522.391,641.3 522.5,644C 522.504,646.361 522.837,648.527 523.5,650.5C 524.664,816.127 524.831,981.793 524,1147.5C 522.731,1148.9 522.231,1150.57 522.5,1152.5C 521.182,1155.6 522.015,1158.26 525,1160.5C 525.495,1162.47 525.662,1164.47 525.5,1166.5C 350.597,1166.83 175.764,1166.5 1,1165.5C 0.833261,778 0.333261,390.666 -0.5,3.5C -0.5,2.83333 -0.5,2.16667 -0.5,1.5C 174.43,0.501406 349.43,0.168072 524.5,0.5C 524.169,22.0065 524.503,43.3399 525.5,64.5 Z"/></g>
<g><path style="opacity:1" fill="#959595" d="M 1052.5,-0.5 C 1220.5,-0.5 1388.5,-0.5 1556.5,-0.5C 1556.5,388.5 1556.5,777.5 1556.5,1166.5C 1389.5,1166.5 1222.5,1166.5 1055.5,1166.5C 1054.69,1164.71 1054.19,1162.71 1054,1160.5C 1053.67,1150.5 1053.33,1140.5 1053,1130.5C 1050.74,1121.68 1049.91,1112.68 1050.5,1103.5C 1052.05,1102.77 1052.88,1101.44 1053,1099.5C 1055.16,1085.67 1054.83,1072 1052,1058.5C 1052.28,1032 1052.12,1005.67 1051.5,979.5C 1051.2,976.083 1050.2,972.916 1048.5,970C 1049.42,967.914 1050.08,965.747 1050.5,963.5C 1052.93,961.492 1053.93,958.826 1053.5,955.5C 1051.99,915.013 1052.66,874.68 1055.5,834.5C 1053.94,821.938 1053.27,809.271 1053.5,796.5C 1053.5,796.167 1053.5,795.833 1053.5,795.5C 1054.83,790.04 1055.5,784.207 1055.5,778C 1055.63,771.397 1055.13,764.897 1054,758.5C 1053.33,707.5 1053.33,656.5 1054,605.5C 1055.11,598.91 1055.61,592.243 1055.5,585.5C 1055.33,579.833 1055.17,574.167 1055,568.5C 1054.77,567.263 1054.27,566.263 1053.5,565.5C 1054.21,502.488 1054.05,439.488 1053,376.5C 1052.29,375.619 1051.46,374.953 1050.5,374.5C 1048.91,371.081 1048.25,367.415 1048.5,363.5C 1050.23,362.883 1051.73,361.883 1053,360.5C 1053.87,346.347 1054.37,332.18 1054.5,318C 1052.98,291.232 1052.14,264.399 1052,237.5C 1051.45,158.165 1051.62,78.8318 1052.5,-0.5 Z"/></g>
<g><path style="opacity:1" fill="#181818" d="M -0.5,3.5 C 0.333261,390.666 0.833261,778 1,1165.5C 175.764,1166.5 350.597,1166.83 525.5,1166.5C 525.5,1166.83 525.5,1167.17 525.5,1167.5C 350.167,1167.5 174.833,1167.5 -0.5,1167.5C -0.5,779.5 -0.5,391.5 -0.5,3.5 Z"/></g>
<g><path style="opacity:1" fill="#a9a9a9" d="M 1556.5,-0.5 C 1556.83,-0.5 1557.17,-0.5 1557.5,-0.5C 1557.5,388.833 1557.5,778.167 1557.5,1167.5C 1390,1167.83 1222.67,1167.5 1055.5,1166.5C 1222.5,1166.5 1389.5,1166.5 1556.5,1166.5C 1556.5,777.5 1556.5,388.5 1556.5,-0.5 Z"/></g>
<g><path style="opacity:1" fill="#c5c5c5" d="M 526.5,-0.5 C 526.833,-0.5 527.167,-0.5 527.5,-0.5C 528.156,22.8576 527.49,45.8576 525.5,68.5C 526.489,45.575 526.822,22.575 526.5,-0.5 Z"/></g>
<g><path style="opacity:1" fill="#222222" d="M 522.5,77.5 C 523.458,77.9528 524.292,78.6195 525,79.5C 525.832,170.001 525.666,260.334 524.5,350.5C 524.667,260.499 524.5,170.499 524,80.5C 522.961,79.7562 522.461,78.7562 522.5,77.5 Z"/></g>
<g><path style="opacity:1" fill="#7f7f7f" d="M 525.5,-0.5 C 525.833,-0.5 526.167,-0.5 526.5,-0.5C 526.822,22.575 526.489,45.575 525.5,68.5C 524.252,69.3339 523.585,70.6672 523.5,72.5C 523.221,75.0063 524.054,77.0063 526,78.5C 526.667,169.5 526.667,260.5 526,351.5C 522.563,354.78 522.729,357.78 526.5,360.5C 526.832,395.337 526.498,430.004 525.5,464.5C 525.667,430.165 525.5,395.832 525,361.5C 520.669,357.904 520.503,354.237 524.5,350.5C 525.666,260.334 525.832,170.001 525,79.5C 524.292,78.6195 523.458,77.9528 522.5,77.5C 522.489,75.4534 522.156,73.4534 521.5,71.5C 522.487,68.8758 523.82,66.5425 525.5,64.5C 525.5,42.8333 525.5,21.1667 525.5,-0.5 Z"/></g>
<g><path style="opacity:1" fill="#000000" d="M 773.5,265.5 C 816.837,263.087 857.837,271.587 896.5,291C 961.577,330.314 991.411,388.147 986,464.5C 982.169,505.337 964.335,538.504 932.5,564C 900.408,587.68 865.742,607.18 828.5,622.5C 826.81,635.404 822.644,647.404 816,658.5C 801.592,673.062 784.425,677.562 764.5,672C 752.813,667.648 744.313,659.814 739,648.5C 736.107,639.704 734.107,630.704 733,621.5C 732.167,600.159 732.334,578.826 733.5,557.5C 766.965,544.435 799.965,530.268 832.5,515C 849.55,507.223 864.384,496.389 877,482.5C 893.312,460.526 895.979,436.86 885,411.5C 868.378,382.252 843.212,365.752 809.5,362C 766.722,358.04 726.055,365.54 687.5,384.5C 686.816,396.849 685.982,409.182 685,421.5C 680.782,447.723 665.449,461.056 639,461.5C 617.201,461.44 602.867,451.107 596,430.5C 593.828,421.627 592.494,412.627 592,403.5C 591.172,376.261 591.339,349.095 592.5,322C 628.714,304.227 666.048,289.227 704.5,277C 727.356,271.391 750.356,267.557 773.5,265.5 Z"/></g>
<g><path style="opacity:1" fill="#bdbdbd" d="M 1050.5,-0.5 C 1051.17,-0.5 1051.83,-0.5 1052.5,-0.5C 1051.62,78.8318 1051.45,158.165 1052,237.5C 1052.14,264.399 1052.98,291.232 1054.5,318C 1054.37,332.18 1053.87,346.347 1053,360.5C 1051.73,361.883 1050.23,362.883 1048.5,363.5C 1048.5,363.167 1048.5,362.833 1048.5,362.5C 1048.5,361.833 1048.83,361.5 1049.5,361.5C 1050.12,361.389 1050.62,361.056 1051,360.5C 1051.17,346.333 1051.33,332.167 1051.5,318C 1050.6,211.835 1050.27,105.669 1050.5,-0.5 Z"/></g>
<g><path style="opacity:1" fill="#dddddd" d="M 1049.5,-0.5 C 1049.83,-0.5 1050.17,-0.5 1050.5,-0.5C 1050.27,105.669 1050.6,211.835 1051.5,318C 1051.33,332.167 1051.17,346.333 1051,360.5C 1050.62,361.056 1050.12,361.389 1049.5,361.5C 1049.5,240.833 1049.5,120.167 1049.5,-0.5 Z"/></g>
<g><path style="opacity:1" fill="#d7d7d7" d="M 526.5,360.5 C 527.664,395.331 527.831,430.331 527,465.5C 526.768,466.737 526.268,467.737 525.5,468.5C 525.5,467.167 525.5,465.833 525.5,464.5C 526.498,430.004 526.832,395.337 526.5,360.5 Z"/></g>
<g><path style="opacity:1" fill="#8b8b8b" d="M 525.5,464.5 C 525.5,465.833 525.5,467.167 525.5,468.5C 524.833,471.5 524.167,474.5 523.5,477.5C 523.5,474.833 523.5,472.167 523.5,469.5C 523.402,467.447 524.069,465.78 525.5,464.5 Z"/></g>
<g><path style="opacity:1" fill="#4a4a4a" d="M 523.5,469.5 C 523.5,472.167 523.5,474.833 523.5,477.5C 522.058,478.82 521.392,480.486 521.5,482.5C 520.876,482.083 520.543,481.416 520.5,480.5C 521.902,476.87 522.902,473.203 523.5,469.5 Z"/></g>
<g><path style="opacity:1" fill="#ababab" d="M 1050.5,374.5 C 1051.46,374.953 1052.29,375.619 1053,376.5C 1054.05,439.488 1054.21,502.488 1053.5,565.5C 1052.51,555.681 1052.17,545.681 1052.5,535.5C 1052.23,500.486 1052.23,465.486 1052.5,430.5C 1051.89,411.8 1051.22,393.133 1050.5,374.5 Z"/></g>
<g><path style="opacity:1" fill="#242424" d="M 524.5,485.5 C 525.499,535.664 525.832,585.997 525.5,636.5C 523.629,640.866 522.962,645.533 523.5,650.5C 522.837,648.527 522.504,646.361 522.5,644C 522.391,641.3 522.891,638.8 524,636.5C 524.5,586.168 524.667,535.834 524.5,485.5 Z"/></g>
<g><path style="opacity:1" fill="#adadad" d="M 523.5,483.5 C 524.583,483.539 525.583,483.873 526.5,484.5C 527.828,535.234 527.828,585.901 526.5,636.5C 526.167,636.5 525.833,636.5 525.5,636.5C 525.832,585.997 525.499,535.664 524.5,485.5C 524.167,484.833 523.833,484.167 523.5,483.5 Z"/></g>
<g><path style="opacity:1" fill="#d3d3d3" d="M 1048.5,362.5 C 1048.5,362.833 1048.5,363.167 1048.5,363.5C 1048.25,367.415 1048.91,371.081 1050.5,374.5C 1051.22,393.133 1051.89,411.8 1052.5,430.5C 1052.23,465.486 1052.23,500.486 1052.5,535.5C 1051.17,610.167 1051.17,684.833 1052.5,759.5C 1054.06,764.823 1054.73,770.323 1054.5,776C 1054.31,782.514 1053.98,789.014 1053.5,795.5C 1053.5,795.833 1053.5,796.167 1053.5,796.5C 1052.83,800.653 1052.5,804.987 1052.5,809.5C 1052.43,817.281 1053.09,824.947 1054.5,832.5C 1052.87,846.458 1051.7,860.458 1051,874.5C 1050.5,904.165 1050.33,933.831 1050.5,963.5C 1050.08,965.747 1049.42,967.914 1048.5,970C 1050.2,972.916 1051.2,976.083 1051.5,979.5C 1051.12,1004.51 1050.46,1029.51 1049.5,1054.5C 1048,1052.71 1047.34,1050.54 1047.5,1048C 1049.54,1023.55 1050.04,999.048 1049,974.5C 1047,971.5 1047,968.5 1049,965.5C 1049.54,918.829 1049.87,872.163 1050,825.5C 1045.97,824.997 1044.8,822.997 1046.5,819.5C 1047.27,818.34 1048.27,817.34 1049.5,816.5C 1049.83,814.667 1050.17,812.833 1050.5,811C 1051.58,794.178 1051.75,777.345 1051,760.5C 1050.9,757.563 1050.07,754.896 1048.5,752.5C 1049.83,702.142 1050.5,651.642 1050.5,601C 1050.33,550.833 1050.17,500.667 1050,450.5C 1046.89,447.005 1046.72,443.339 1049.5,439.5C 1049.67,417.831 1049.5,396.164 1049,374.5C 1047.16,372.319 1045.99,369.819 1045.5,367C 1045.41,364.648 1046.41,363.148 1048.5,362.5 Z"/></g>
<g><path style="opacity:1" fill="#aaaaaa" d="M 1053.5,565.5 C 1054.27,566.263 1054.77,567.263 1055,568.5C 1055.17,574.167 1055.33,579.833 1055.5,585.5C 1055.61,592.243 1055.11,598.91 1054,605.5C 1053.33,656.5 1053.33,707.5 1054,758.5C 1055.13,764.897 1055.63,771.397 1055.5,778C 1055.5,784.207 1054.83,790.04 1053.5,795.5C 1053.98,789.014 1054.31,782.514 1054.5,776C 1054.73,770.323 1054.06,764.823 1052.5,759.5C 1052.33,707.166 1052.5,654.832 1053,602.5C 1054.78,590.184 1054.95,577.851 1053.5,565.5 Z"/></g>
<g><path style="opacity:1" fill="#ececec" d="M 1049.5,439.5 C 1046.72,443.339 1046.89,447.005 1050,450.5C 1050.17,500.667 1050.33,550.833 1050.5,601C 1050.5,651.642 1049.83,702.142 1048.5,752.5C 1050.07,754.896 1050.9,757.563 1051,760.5C 1051.75,777.345 1051.58,794.178 1050.5,811C 1050.17,812.833 1049.83,814.667 1049.5,816.5C 1048.27,817.34 1047.27,818.34 1046.5,819.5C 1046.28,817.319 1047.12,815.653 1049,814.5C 1049.67,795.833 1049.67,777.167 1049,758.5C 1045.93,755.225 1045.76,751.892 1048.5,748.5C 1049.67,649.502 1049.83,550.502 1049,451.5C 1046.56,448.291 1045.89,444.625 1047,440.5C 1047.67,439.748 1048.5,439.414 1049.5,439.5 Z"/></g>
<g><path style="opacity:1" fill="#c2c2c2" d="M 1052.5,535.5 C 1052.17,545.681 1052.51,555.681 1053.5,565.5C 1054.95,577.851 1054.78,590.184 1053,602.5C 1052.5,654.832 1052.33,707.166 1052.5,759.5C 1051.17,684.833 1051.17,610.167 1052.5,535.5 Z"/></g>
<g><path style="opacity:1" fill="#232323" d="M 523.5,650.5 C 524.117,650.611 524.617,650.944 525,651.5C 525.5,816.833 525.667,982.166 525.5,1147.5C 524.058,1148.82 523.392,1150.49 523.5,1152.5C 523.167,1152.5 522.833,1152.5 522.5,1152.5C 522.231,1150.57 522.731,1148.9 524,1147.5C 524.831,981.793 524.664,816.127 523.5,650.5 Z"/></g>
<g><path style="opacity:1" fill="#000000" d="M 763.5,757.5 C 781.062,756.579 798.396,758.079 815.5,762C 840.101,771.317 850.601,789.15 847,815.5C 844.065,832.434 834.565,843.934 818.5,850C 793.94,856.94 769.273,857.273 744.5,851C 723.733,843.048 713.4,827.881 713.5,805.5C 714.355,784.158 724.689,769.658 744.5,762C 751.015,760.701 757.349,759.201 763.5,757.5 Z"/></g>
<g><path style="opacity:1" fill="#b9b9b9" d="M 525.5,636.5 C 525.833,636.5 526.167,636.5 526.5,636.5C 525.05,638.893 524.383,641.56 524.5,644.5C 524.168,647.321 525.001,649.654 527,651.5C 527.667,815.167 527.667,978.833 527,1142.5C 526.802,1144.38 526.302,1146.05 525.5,1147.5C 525.667,982.166 525.5,816.833 525,651.5C 524.617,650.944 524.117,650.611 523.5,650.5C 522.962,645.533 523.629,640.866 525.5,636.5 Z"/></g>
<g><path style="opacity:1" fill="#adadad" d="M 1053.5,796.5 C 1053.27,809.271 1053.94,821.938 1055.5,834.5C 1052.66,874.68 1051.99,915.013 1053.5,955.5C 1053.93,958.826 1052.93,961.492 1050.5,963.5C 1050.33,933.831 1050.5,904.165 1051,874.5C 1051.7,860.458 1052.87,846.458 1054.5,832.5C 1053.09,824.947 1052.43,817.281 1052.5,809.5C 1052.5,804.987 1052.83,800.653 1053.5,796.5 Z"/></g>
<g><path style="opacity:1" fill="#afafaf" d="M 1051.5,979.5 C 1052.12,1005.67 1052.28,1032 1052,1058.5C 1054.83,1072 1055.16,1085.67 1053,1099.5C 1052.88,1101.44 1052.05,1102.77 1050.5,1103.5C 1050.23,1101.57 1050.73,1099.9 1052,1098.5C 1052.67,1086.5 1052.67,1074.5 1052,1062.5C 1051.22,1059.69 1050.38,1057.02 1049.5,1054.5C 1050.46,1029.51 1051.12,1004.51 1051.5,979.5 Z"/></g>
<g><path style="opacity:1" fill="#717171" d="M 522.5,1152.5 C 522.833,1152.5 523.167,1152.5 523.5,1152.5C 523.34,1154.2 523.506,1155.87 524,1157.5C 526.633,1160.58 527.133,1163.91 525.5,1167.5C 525.5,1167.17 525.5,1166.83 525.5,1166.5C 525.662,1164.47 525.495,1162.47 525,1160.5C 522.015,1158.26 521.182,1155.6 522.5,1152.5 Z"/></g>
<g><path style="opacity:1" fill="#717171" d="M -0.5,1167.5 C 174.833,1167.5 350.167,1167.5 525.5,1167.5C 525.5,1168.17 525.5,1168.83 525.5,1169.5C 350.167,1169.5 174.833,1169.5 -0.5,1169.5C -0.5,1168.83 -0.5,1168.17 -0.5,1167.5 Z"/></g>
<g><path style="opacity:1" fill="#c5c5c5" d="M 1557.5,-0.5 C 1558.17,-0.5 1558.83,-0.5 1559.5,-0.5C 1559.5,389.5 1559.5,779.5 1559.5,1169.5C 1390.5,1169.5 1221.5,1169.5 1052.5,1169.5C 1052.67,1158.16 1052.5,1146.83 1052,1135.5C 1050.88,1134.05 1050.22,1132.38 1050,1130.5C 1049.7,1124.48 1049.2,1118.48 1048.5,1112.5C 1048.86,1109.3 1049.53,1106.3 1050.5,1103.5C 1049.91,1112.68 1050.74,1121.68 1053,1130.5C 1053.33,1140.5 1053.67,1150.5 1054,1160.5C 1054.19,1162.71 1054.69,1164.71 1055.5,1166.5C 1222.67,1167.5 1390,1167.83 1557.5,1167.5C 1557.5,778.167 1557.5,388.833 1557.5,-0.5 Z"/></g>
</svg>
